<svg width="1280" height="395" viewBox="0 0 1280 395" fill="none" xmlns="http://www.w3.org/2000/svg">
<path d="M217.5 203.275C111.232 223.641 95.7913 251.769 0 243.7V372.288H1279.71L1280 9.62224C1280 -21.1774 1141.23 32.661 1066 23.0973C960 9.62228 917 42.7319 777 91.2413C639.646 138.834 711 112.031 541.5 159.385C365.818 208.467 323.768 182.909 217.5 203.275Z" fill="#82D0C2"/>
<path d="M217.5 239.283C111.232 258.047 95.7913 283.962 0 276.528V395H1279.71L1280 60.8653C1280 32.4886 1141.23 82.0916 1066 73.2802C960 60.8653 917 91.3702 777 136.063C639.646 179.912 711 155.217 541.5 198.847C365.818 244.067 323.768 220.52 217.5 239.283Z" fill="#B9EBE2"/>
<path d="M1074 170C1074 193.196 1016.24 212 945 212C873.755 212 816 193.196 816 170C816 146.804 873.755 128 945 128C1016.24 128 1074 146.804 1074 170Z" fill="url(#paint0_radial_31_108)"/>
<defs>
<radialGradient id="paint0_radial_31_108" cx="0" cy="0" r="1" gradientUnits="userSpaceOnUse" gradientTransform="translate(945 170) rotate(90) scale(42 129)">
<stop offset="0.0104167" stop-color="#A3D1C9"/>
<stop offset="1" stop-color="#B9EBE2"/>
</radialGradient>
</defs>
</svg>
