<svg width="204" height="283" viewBox="0 0 204 283" fill="none" xmlns="http://www.w3.org/2000/svg">
<path d="M197.592 190.205C195.083 193.262 192.416 196.231 189.576 199.092C164.541 224.321 131.53 236.595 98.7237 235.945V282.394H86.8192V235.151V228.408V226.416C86.8192 224.642 88.3374 223.263 90.0889 223.435C122.611 226.649 156.249 215.711 181.159 190.609C184.002 187.743 186.659 184.761 189.136 181.682L197.592 190.205Z" fill="#363636"/>
<path d="M21.9584 282.394C24.3524 272.081 33.5288 264.398 44.4915 264.398H45.6911C47.9627 253.918 57.2195 246.07 68.3003 246.07H117.241C128.322 246.07 137.58 253.918 139.851 264.398H141.05C152.013 264.398 161.189 272.081 163.583 282.394H21.9584ZM193.785 203.334L8.59338 16.7069C6.269 14.3645 6.269 10.5663 8.59338 8.22395C10.9178 5.88157 14.6866 5.88157 17.011 8.22395L202.203 194.851C204.527 197.193 204.527 200.991 202.203 203.334C199.878 205.676 196.109 205.676 193.785 203.334Z" fill="#997F70"/>
<path d="M47.8925 258.4H137.649C138.639 260.264 139.39 262.276 139.851 264.399H45.6911C46.1512 262.276 46.9022 260.264 47.8925 258.4ZM24.2654 276.395C23.2385 278.254 22.4521 280.267 21.9584 282.394H163.584C163.09 280.267 162.304 278.254 161.277 276.395H24.2654Z" fill="#614C3F"/>
<path d="M202.378 110.021C202.378 166.338 157.074 211.993 101.189 211.993C45.3036 211.993 0 166.338 0 110.021C0 53.7027 45.3036 8.04761 101.189 8.04761C157.074 8.04761 202.378 53.7021 202.378 110.021Z" fill="#5D827B"/>
<path d="M190.503 98.0687C190.503 143.093 154.284 179.592 109.607 179.592C64.9286 179.592 28.7096 143.093 28.7096 98.0687C28.7096 53.0446 64.928 16.5449 109.606 16.5449C154.284 16.5449 190.503 53.0446 190.503 98.0687Z" fill="#91C3BA"/>
<path d="M142.789 124.183C144.393 124.183 145.481 125.828 144.864 127.321L118.631 190.77C118.281 191.615 117.463 192.165 116.555 192.165H106.811H101.189H91.4452C90.5376 192.165 89.7188 191.615 89.3697 190.77L64.757 131.243C64.4079 130.398 63.5892 129.848 62.6816 129.848H56.2165H46.177C45.4254 129.848 44.723 129.47 44.3061 128.839L34.5623 114.11C34.059 113.348 34.059 112.357 34.5623 111.596L55.5495 79.8707C55.9664 79.2403 56.6688 78.8618 57.4204 78.8618H67.4599H84.3245H94.178C95.0298 78.8618 95.8084 79.3465 96.1893 80.1143L100.568 88.9391C100.949 89.7069 101.728 90.1916 102.579 90.1916H110.559H120.182C121.15 90.1916 122.009 90.816 122.315 91.741L132.533 122.633C132.839 123.558 133.699 124.182 134.666 124.182H134.919H142.789V124.183ZM121.692 73.1969H127.048C128.29 73.1969 129.297 72.1826 129.297 70.9307V64.1327C129.297 62.8814 128.29 61.8665 127.048 61.8665H125.065C124.213 61.8665 123.435 62.3512 123.054 63.119L119.681 69.917C118.933 71.4238 120.02 73.1969 121.692 73.1969ZM78.4736 36.3733H84.6028C85.4636 36.3733 86.2493 35.8778 86.6254 35.0974L93.9975 19.8015C94.7227 18.2965 93.6352 16.5455 91.9748 16.5455H88.8814C88.14 16.5455 87.446 16.9138 87.0267 17.5299L76.6189 32.8258C75.5962 34.3296 76.6645 36.3733 78.4736 36.3733ZM130.557 13.0779L101.723 27.606C101.373 27.7824 101.075 28.0475 100.858 28.3756L90.6138 43.8611C90.1969 44.4915 89.4945 44.87 88.7429 44.87H80.3235C79.3554 44.87 78.4964 45.4945 78.1905 46.4194L73.8494 59.5439C73.4349 60.7964 74.1667 62.1388 75.4372 62.4591L94.3328 67.2195C95.0988 67.4126 95.9098 67.1865 96.4682 66.6232L111.774 51.1989C112.196 50.7743 112.768 50.5355 113.365 50.5355H117.69C117.932 50.5355 118.172 50.5745 118.401 50.6519L133.748 55.8075C134.478 56.0522 135.032 56.6563 135.219 57.4079L140.115 77.1451C140.365 78.154 141.265 78.8618 142.297 78.8618H150.088C151.092 78.8618 151.974 78.1912 152.25 77.2182L157.743 57.8446C158.018 56.8716 158.901 56.201 159.904 56.201H160.287C161.301 56.201 162.19 56.8848 162.457 57.871L173.818 99.8526C174.085 100.839 174.974 101.523 175.988 101.523H183.796C184.81 101.523 185.699 100.839 185.966 99.8526L193.927 70.4364C194.063 69.9338 194.026 69.3981 193.818 68.9218C182.241 42.4641 159.835 21.9003 132.255 12.9441C131.693 12.7623 131.083 12.8127 130.557 13.0779ZM110.73 73.1969H103.438C102.196 73.1969 101.189 74.2112 101.189 75.4631V76.457C101.189 77.5284 101.934 78.4539 102.974 78.6746L109.712 80.1041C110.91 80.3584 112.09 79.599 112.366 78.3963L112.921 75.973C113.246 74.5525 112.176 73.1969 110.73 73.1969Z" fill="#616B31"/>
<path d="M144.865 127.321L143.1 131.588C139.233 140.941 130.165 147.033 120.111 147.033C110.056 147.033 100.988 140.941 97.1209 131.588L91.0055 116.797C90.6564 115.952 89.8376 115.402 88.93 115.402H82.465H71.5556C71.0026 115.402 70.5545 114.951 70.5545 114.393C64.1506 104.713 64.1506 92.1009 70.5545 82.4207L72.9083 78.8624H84.3245H94.178C95.0298 78.8624 95.8084 79.3471 96.1893 80.1149L100.568 88.9397C100.949 89.7075 101.728 90.1922 102.579 90.1922H110.559H120.182C121.15 90.1922 122.009 90.816 122.315 91.7416L132.533 122.633C132.839 123.559 133.699 124.183 134.666 124.183H134.919H142.79C144.393 124.183 145.482 125.828 144.865 127.321ZM165.635 31.4216C165.092 30.9693 164.547 30.52 163.995 30.0792C163.614 29.775 163.228 29.4769 162.843 29.1782C162.477 28.8945 162.11 28.6119 161.74 28.333C161.345 28.0349 160.949 27.7386 160.549 27.4459C160.138 27.1447 159.722 26.8502 159.306 26.5557C159.009 26.3451 158.718 26.1274 158.419 25.9199H158.409C150.44 20.3989 141.648 15.9961 132.253 12.9447C131.693 12.763 131.082 12.8133 130.556 13.0785L117.04 19.8891L121.022 29.5207C124.889 38.8734 133.958 44.966 144.012 44.966C146.899 44.966 149.705 44.4633 152.329 43.5252L171.16 48.2693C171.926 48.4625 172.737 48.2363 173.296 47.6731L177.668 43.2667C173.991 38.9904 169.962 35.0308 165.635 31.4216Z" fill="#CADA80"/>
<path d="M172.888 37.8444C133.421 -1.84041 69.1978 -1.83258 29.7231 37.8444C-9.75147 77.5215 -9.75147 142.095 29.7231 181.772C69.1978 221.456 133.421 221.449 172.888 181.772C212.362 142.102 212.37 77.5215 172.888 37.8444ZM94.398 29.718C95.1689 26.5395 95.7919 23.1495 96.2825 19.3603L96.7264 16.0096L100.098 15.9704C122.503 15.6807 144.261 23.4705 161.347 37.8992L164.602 40.655L141.177 64.1966L138.428 61.6679C125.345 49.6426 110.923 40.1618 96.7031 34.2666L93.6192 32.9827L94.398 29.718ZM81.1204 67.61C89.8345 74.7344 98.9069 82.8843 108.096 91.8249L110.931 94.5964L86.1744 119.477L83.4177 116.635C74.5166 107.397 66.4099 98.276 59.3311 89.5154L56.8546 86.4465L59.9229 83.9882C66.6279 78.6097 70.2724 74.9458 75.6224 68.2129L78.0677 65.1283L81.1204 67.61ZM80.2637 61.8949L82.0704 58.9669C85.7305 53.0952 88.7443 46.926 91.0416 40.6315L92.4667 36.7719L96.2202 38.3846C109.669 44.1389 123.219 53.0561 135.415 64.1731L138.452 66.9289L113.68 91.8249L110.923 89.1709C104.366 82.8373 94.1955 73.3487 82.9037 64.0792L80.2637 61.8949ZM80.7699 119.485L83.4099 122.256L58.6458 147.152L55.9046 144.091C44.9944 131.94 36.2101 118.279 30.4863 104.586L28.9133 100.828L32.7213 99.4033C38.9201 97.086 44.9788 94.0875 50.7259 90.4783L53.6384 88.6464L55.8033 91.3239C64.977 102.605 74.4387 112.861 80.7699 119.485ZM88.9312 127.791L91.6802 130.445C98.2761 136.81 108.478 146.33 119.699 155.537L122.371 157.713L120.556 160.641C116.966 166.411 113.976 172.51 111.671 178.742L110.245 182.562L106.515 180.981C92.895 175.234 79.2981 166.403 67.2197 155.435L64.1671 152.679L88.9312 127.791ZM121.498 151.998C112.784 144.874 103.712 136.724 94.5226 127.783L91.6802 125.012L116.436 100.131L119.193 102.981C128.094 112.219 136.201 121.34 143.28 130.101L145.756 133.17L142.68 135.628C135.983 141.006 132.331 144.67 126.981 151.403L124.535 154.496L121.498 151.998ZM121.841 100.124L119.201 97.36L143.965 72.464L146.714 75.5094C157.78 87.7617 166.65 101.392 172.366 114.905L173.97 118.686L170.131 120.111C163.87 122.42 157.733 125.466 151.893 129.13L148.98 130.962L146.815 128.276C137.579 116.948 128.133 106.708 121.841 100.124ZM73.4575 20.198C77.8808 18.8123 82.6623 17.7476 87.6385 17.0117L92.9106 16.2366L92.0462 21.5133C91.7191 23.5645 91.3531 25.6157 90.9014 27.6433L89.9825 31.6987L86.0187 30.5244C81.7356 29.2639 77.725 28.3558 74.0571 27.8156L57.1272 25.3103L73.4575 20.198ZM48.304 33.2723C58.5367 29.8824 71.168 30.2269 84.8116 34.2666L88.8144 35.441L87.3659 39.3711C85.2166 45.235 82.5844 50.77 79.5395 55.8118L77.3123 59.5228L73.8702 56.9079C63.7699 49.2434 55.048 43.7396 47.938 40.5611L38.7021 36.4431L48.304 33.2723ZM35.3301 43.2699L37.4327 41.4301L39.7845 41.5319C46.474 43.1525 58.1396 49.9949 71.7988 60.29L74.9994 62.717L72.4919 65.8799C69.9843 69.0427 67.7649 71.5715 65.5143 73.8184C63.2793 76.0731 60.764 78.3044 57.61 80.8331L54.4795 83.354L52.0654 80.1285C41.8249 66.4044 35.0186 54.6767 33.4066 47.9516L32.9082 45.8613L35.3301 43.2699ZM25.2376 56.7435L28.3058 46.8477L32.5188 56.3129C35.6961 63.4529 41.1318 72.1665 48.6934 82.2267L51.3022 85.687L47.6031 87.934C42.6971 90.9246 37.2926 93.5316 31.5454 95.6846L27.605 97.1564L26.4368 93.101C22.512 79.4709 22.0992 66.9054 25.2376 56.7435ZM9.00073 96.0682C9.73275 91.0499 10.7996 86.2507 12.178 81.8117L17.2476 65.3866L19.7396 82.4067C20.277 86.0942 21.1881 90.1417 22.4341 94.4241L23.6022 98.4091L19.5683 99.3407C17.5514 99.8026 15.511 100.171 13.4629 100.499L8.22198 101.345L9.00073 96.0682ZM29.7777 170.169C15.4176 152.992 7.66907 131.126 7.95721 108.587L7.99615 105.205L11.337 104.75C15.145 104.242 18.5248 103.615 21.6398 102.856L24.8716 102.065L26.1487 105.165C32.0282 119.453 41.4511 133.976 53.4126 147.113L55.9279 149.876L32.5033 173.418L29.7777 170.169ZM108.213 189.898C107.458 193.03 106.835 196.419 106.328 200.256L105.877 203.606L102.505 203.646C80.1002 203.935 58.3498 196.145 41.2642 181.717L38.009 178.961L61.4337 155.419L64.1749 157.94C77.2578 169.965 91.6879 179.439 105.916 185.349L108.999 186.633L108.213 189.898ZM129.161 199.41C124.746 200.804 119.956 201.861 114.98 202.604L109.724 203.387L110.565 198.118C110.892 196.044 111.258 194.008 111.717 191.973L112.644 187.925L116.608 189.092C120.868 190.344 124.878 191.26 128.562 191.8L145.491 194.306L129.161 199.41ZM154.089 186.273C143.981 189.436 131.49 189.021 117.908 185.075L113.867 183.901L115.331 179.947C117.472 174.177 120.073 168.736 123.048 163.804L125.275 160.085L128.71 162.7C138.709 170.302 147.376 175.775 154.494 178.969L163.909 183.204L154.089 186.273ZM167.382 176.229L165.194 178.17L162.834 178.068C156.153 176.44 144.487 169.605 130.828 159.31L127.627 156.876L130.127 153.728C135.158 147.395 138.716 143.825 145.001 138.767L148.131 136.254L150.553 139.48C160.786 153.204 167.592 164.932 169.212 171.649L169.71 173.747L167.382 176.229ZM177.436 163.092L174.282 172.737L170.186 163.452C167.032 156.296 161.557 147.528 153.933 137.374L151.324 133.921L155.023 131.674C160.054 128.613 165.56 125.967 171.393 123.814L175.302 122.358L176.462 126.382C180.473 140.122 180.815 152.812 177.436 163.092ZM193.61 123.548C192.886 128.558 191.827 133.357 190.441 137.804L185.379 154.229L182.887 137.209C182.35 133.53 181.438 129.482 180.185 125.192L179.024 121.207L183.066 120.275C185.083 119.806 187.123 119.453 189.148 119.117L194.412 118.263L193.61 123.548ZM191.282 114.842C187.513 115.343 184.141 115.977 180.979 116.737L177.739 117.527L176.47 114.427C170.59 100.124 161.16 85.6166 149.206 72.4718L146.699 69.716L170.123 46.1744L172.857 49.4391C187.224 66.6158 194.957 88.482 194.677 111.014L194.63 114.396L191.282 114.842Z" fill="#363636"/>
<path d="M166.425 23.131C166.425 10.3564 155.803 0 142.712 0C129.622 0 119 10.3564 119 23.131C119 35.9056 142.712 69.3961 142.712 69.3961C142.712 69.3961 166.425 35.9056 166.425 23.131ZM130.856 23.131C130.856 16.7374 136.169 11.5639 142.712 11.5639C149.256 11.5639 154.569 16.7374 154.569 23.131C154.569 29.5245 149.256 34.698 142.712 34.698C136.169 34.698 130.856 29.5245 130.856 23.131Z" fill="#FF7544"/>
</svg>
