<svg width="56" height="56" viewBox="0 0 56 56" fill="none" xmlns="http://www.w3.org/2000/svg">
<rect width="56" height="56" rx="28" fill="#B9EBE2"/>
<circle cx="27.6274" cy="27.6274" r="15.1" transform="rotate(-45 27.6274 27.6274)" stroke="#252525" stroke-width="1.8"/>
<path d="M33.5907 21.6642C36.6225 24.6959 38.618 28.1277 39.4238 31.1898C40.2361 34.2766 39.8069 36.8026 38.3048 38.3047C36.8027 39.8069 34.2767 40.236 31.1899 39.4237C28.1278 38.6179 24.696 36.6225 21.6642 33.5907C18.6324 30.5589 16.637 27.1271 15.8312 24.065C15.0189 20.9782 15.448 18.4522 16.9502 16.9501C18.4523 15.448 20.9783 15.0188 24.0651 15.8311C27.1272 16.6369 30.559 18.6324 33.5907 21.6642Z" stroke="#252525" stroke-width="1.8"/>
<path d="M12.7883 31.6446L31.6445 12.7884" stroke="#252525" stroke-width="1.8"/>
<path d="M38.9412 38.9411L17.2975 17.2975" stroke="#252525" stroke-width="1.8"/>
<path d="M23.6104 42.4664L42.4665 23.6102" stroke="#252525" stroke-width="1.8"/>
<path d="M17.7483 38.4902L38.4901 17.7484" stroke="#252525" stroke-width="1.8"/>
<path d="M44.6274 16.4803C44.6274 13.2479 41.9398 10.6274 38.6274 10.6274C35.3151 10.6274 32.6274 13.2479 32.6274 16.4803C32.6274 19.7127 38.6274 28.1868 38.6274 28.1868C38.6274 28.1868 44.6274 19.7127 44.6274 16.4803ZM35.6274 16.4803C35.6274 14.8625 36.9717 13.5535 38.6274 13.5535C40.2832 13.5535 41.6274 14.8625 41.6274 16.4803C41.6274 18.0981 40.2832 19.4071 38.6274 19.4071C36.9717 19.4071 35.6274 18.0981 35.6274 16.4803Z" fill="#FF7544"/>
</svg>
