<svg width="46" height="46" viewBox="0 0 46 46" fill="none" xmlns="http://www.w3.org/2000/svg">
<circle cx="22.6274" cy="22.6274" r="15.1" transform="rotate(-45 22.6274 22.6274)" stroke="#252525" stroke-width="1.8"/>
<path d="M28.5906 16.6642C31.6224 19.696 33.6179 23.1278 34.4237 26.1899C35.236 29.2767 34.8068 31.8027 33.3047 33.3048C31.8025 34.8069 29.2765 35.2361 26.1897 34.4238C23.1277 33.618 19.6959 31.6225 16.6641 28.5908C13.6323 25.559 11.6369 22.1272 10.8311 19.0651C10.0187 15.9783 10.4479 13.4523 11.95 11.9502C13.4522 10.4481 15.9782 10.0189 19.065 10.8312C22.127 11.637 25.5589 13.6325 28.5906 16.6642Z" stroke="#252525" stroke-width="1.8"/>
<path d="M7.78845 26.6447L26.6446 7.78847" stroke="#252525" stroke-width="1.8"/>
<path d="M33.9412 33.9412L12.2975 12.2975" stroke="#252525" stroke-width="1.8"/>
<path d="M18.6102 37.4664L37.4664 18.6103" stroke="#252525" stroke-width="1.8"/>
<path d="M12.7484 33.4902L33.4902 12.7484" stroke="#252525" stroke-width="1.8"/>
<path d="M39.6274 11.4803C39.6274 8.24793 36.9398 5.62744 33.6274 5.62744C30.3151 5.62744 27.6274 8.24793 27.6274 11.4803C27.6274 14.7127 33.6274 23.1868 33.6274 23.1868C33.6274 23.1868 39.6274 14.7127 39.6274 11.4803ZM30.6274 11.4803C30.6274 9.86254 31.9717 8.55348 33.6274 8.55348C35.2832 8.55348 36.6274 9.86254 36.6274 11.4803C36.6274 13.0981 35.2832 14.4071 33.6274 14.4071C31.9717 14.4071 30.6274 13.0981 30.6274 11.4803Z" fill="#FF7544"/>
</svg>
