<svg width="176" height="48" viewBox="0 0 176 48" fill="none" xmlns="http://www.w3.org/2000/svg">
<path d="M58.056 36.192C56.6907 36.192 55.464 35.9573 54.376 35.488C53.3093 35.0187 52.456 34.2613 51.816 33.216C51.1973 32.1707 50.888 30.784 50.888 29.056V19.744C50.888 18.016 51.1973 16.6293 51.816 15.584C52.456 14.5387 53.3093 13.7813 54.376 13.312C55.464 12.8427 56.6587 12.608 57.96 12.608C59.4107 12.608 60.68 12.8533 61.768 13.344C62.856 13.8347 63.7093 14.5173 64.328 15.392C64.9467 16.2667 65.256 17.312 65.256 18.528C65.256 19.168 65.1067 19.6053 64.808 19.84C64.5307 20.0533 64.1147 20.16 63.56 20.16C63.112 20.16 62.7173 20.0853 62.376 19.936C62.056 19.7653 61.8853 19.4667 61.864 19.04C61.8 18.4213 61.6507 17.856 61.416 17.344C61.1813 16.8107 60.7973 16.3947 60.264 16.096C59.7307 15.776 58.9947 15.616 58.056 15.616C56.8613 15.616 55.9227 15.9573 55.24 16.64C54.5787 17.3013 54.248 18.336 54.248 19.744V29.056C54.248 30.464 54.5787 31.5093 55.24 32.192C55.9227 32.8533 56.8613 33.184 58.056 33.184C59.2293 33.184 60.1573 32.8533 60.84 32.192C61.5227 31.5093 61.864 30.464 61.864 29.056V26.432H58.632C58.2907 26.432 58.024 26.2933 57.832 26.016C57.64 25.7387 57.544 25.4187 57.544 25.056C57.544 24.736 57.64 24.4373 57.832 24.16C58.024 23.8613 58.2907 23.712 58.632 23.712H64.136C64.4987 23.712 64.776 23.8293 64.968 24.064C65.16 24.2773 65.256 24.544 65.256 24.864V29.056C65.256 30.784 64.936 32.1707 64.296 33.216C63.656 34.2613 62.792 35.0187 61.704 35.488C60.616 35.9573 59.4 36.192 58.056 36.192ZM70.366 36C70.0033 36 69.662 35.904 69.342 35.712C69.022 35.52 68.862 35.2427 68.862 34.88V13.728C68.862 13.3653 69.022 13.088 69.342 12.896C69.662 12.704 70.0033 12.608 70.366 12.608H81.758C82.1633 12.608 82.4513 12.768 82.622 13.088C82.7927 13.408 82.878 13.7387 82.878 14.08C82.878 14.4853 82.782 14.848 82.59 15.168C82.398 15.4667 82.1207 15.616 81.758 15.616H72.254V22.944H77.182C77.5447 22.944 77.822 23.0827 78.014 23.36C78.206 23.6373 78.302 23.9573 78.302 24.32C78.302 24.6187 78.2167 24.9173 78.046 25.216C77.8753 25.4933 77.5873 25.632 77.182 25.632H72.254V32.992H81.758C82.1207 32.992 82.398 33.1413 82.59 33.44C82.782 33.7387 82.878 34.1013 82.878 34.528C82.878 34.8693 82.7927 35.2 82.622 35.52C82.4513 35.84 82.1633 36 81.758 36H70.366ZM92.181 36.192C90.8157 36.192 89.589 35.9573 88.501 35.488C87.4343 35.0187 86.581 34.2613 85.941 33.216C85.3223 32.1707 85.013 30.784 85.013 29.056V19.744C85.013 18.016 85.3223 16.6293 85.941 15.584C86.581 14.5387 87.4343 13.7813 88.501 13.312C89.589 12.8427 90.8157 12.608 92.181 12.608C93.525 12.608 94.741 12.8427 95.829 13.312C96.917 13.7813 97.781 14.5387 98.421 15.584C99.061 16.6293 99.381 18.016 99.381 19.744V29.056C99.381 30.784 99.061 32.1707 98.421 33.216C97.781 34.2613 96.917 35.0187 95.829 35.488C94.741 35.9573 93.525 36.192 92.181 36.192ZM92.181 33.184C93.3543 33.184 94.2823 32.8533 94.965 32.192C95.6477 31.5093 95.989 30.464 95.989 29.056V19.744C95.989 18.336 95.6477 17.3013 94.965 16.64C94.3037 15.9573 93.3757 15.616 92.181 15.616C90.9863 15.616 90.0477 15.9573 89.365 16.64C88.7037 17.3013 88.373 18.336 88.373 19.744V29.056C88.373 30.464 88.7037 31.5093 89.365 32.192C90.0477 32.8533 90.9863 33.184 92.181 33.184ZM110.306 36.192C108.941 36.192 107.714 35.9573 106.626 35.488C105.559 35.0187 104.706 34.2613 104.066 33.216C103.447 32.1707 103.138 30.784 103.138 29.056V19.744C103.138 18.016 103.447 16.6293 104.066 15.584C104.706 14.5387 105.559 13.7813 106.626 13.312C107.714 12.8427 108.909 12.608 110.21 12.608C111.661 12.608 112.93 12.8533 114.018 13.344C115.106 13.8347 115.959 14.5173 116.578 15.392C117.197 16.2667 117.506 17.312 117.506 18.528C117.506 19.168 117.357 19.6053 117.058 19.84C116.781 20.0533 116.365 20.16 115.81 20.16C115.362 20.16 114.967 20.0853 114.626 19.936C114.306 19.7653 114.135 19.4667 114.114 19.04C114.05 18.4213 113.901 17.856 113.666 17.344C113.431 16.8107 113.047 16.3947 112.514 16.096C111.981 15.776 111.245 15.616 110.306 15.616C109.111 15.616 108.173 15.9573 107.49 16.64C106.829 17.3013 106.498 18.336 106.498 19.744V29.056C106.498 30.464 106.829 31.5093 107.49 32.192C108.173 32.8533 109.111 33.184 110.306 33.184C111.479 33.184 112.407 32.8533 113.09 32.192C113.773 31.5093 114.114 30.464 114.114 29.056V26.432H110.882C110.541 26.432 110.274 26.2933 110.082 26.016C109.89 25.7387 109.794 25.4187 109.794 25.056C109.794 24.736 109.89 24.4373 110.082 24.16C110.274 23.8613 110.541 23.712 110.882 23.712H116.386C116.749 23.712 117.026 23.8293 117.218 24.064C117.41 24.2773 117.506 24.544 117.506 24.864V29.056C117.506 30.784 117.186 32.1707 116.546 33.216C115.906 34.2613 115.042 35.0187 113.954 35.488C112.866 35.9573 111.65 36.192 110.306 36.192ZM121.528 36C121.229 36 120.909 35.936 120.568 35.808C120.227 35.68 119.949 35.52 119.736 35.328C119.523 35.1147 119.416 34.8693 119.416 34.592C119.416 34.528 119.427 34.432 119.448 34.304L125.816 13.568C125.944 13.184 126.211 12.896 126.616 12.704C127.043 12.512 127.491 12.416 127.96 12.416C128.451 12.416 128.899 12.512 129.304 12.704C129.731 12.896 130.008 13.184 130.136 13.568L136.472 34.304C136.515 34.432 136.536 34.528 136.536 34.592C136.536 34.848 136.419 35.0827 136.184 35.296C135.971 35.5093 135.693 35.68 135.352 35.808C135.032 35.936 134.712 36 134.392 36C134.115 36 133.869 35.9467 133.656 35.84C133.464 35.7333 133.325 35.552 133.24 35.296L131.928 30.752H123.992L122.712 35.296C122.648 35.552 122.499 35.7333 122.264 35.84C122.051 35.9467 121.805 36 121.528 36ZM124.76 28.032H131.16L127.96 17.056L124.76 28.032ZM140.746 36C140.319 36 139.924 35.904 139.562 35.712C139.22 35.52 139.049 35.2427 139.049 34.88V14.304C139.049 13.664 139.22 13.2267 139.562 12.992C139.924 12.736 140.319 12.608 140.746 12.608C141.151 12.608 141.503 12.672 141.802 12.8C142.1 12.9067 142.378 13.0987 142.634 13.376C142.89 13.6533 143.156 14.0373 143.434 14.528L147.914 23.008L152.458 14.528C152.735 14.0373 152.991 13.6533 153.226 13.376C153.482 13.0987 153.759 12.9067 154.058 12.8C154.356 12.672 154.708 12.608 155.114 12.608C155.562 12.608 155.956 12.736 156.298 12.992C156.639 13.2267 156.81 13.664 156.81 14.304V34.88C156.81 35.2427 156.628 35.52 156.266 35.712C155.924 35.904 155.54 36 155.114 36C154.687 36 154.292 35.904 153.93 35.712C153.588 35.52 153.418 35.2427 153.418 34.88V19.52L149.13 27.456C148.959 27.7333 148.767 27.936 148.554 28.064C148.34 28.1707 148.116 28.224 147.882 28.224C147.69 28.224 147.487 28.1707 147.274 28.064C147.06 27.9573 146.879 27.7547 146.73 27.456L142.442 19.328V34.88C142.442 35.2427 142.26 35.52 141.898 35.712C141.556 35.904 141.172 36 140.746 36ZM162.522 36C162.16 36 161.818 35.904 161.498 35.712C161.178 35.52 161.018 35.2427 161.018 34.88V13.728C161.018 13.3653 161.178 13.088 161.498 12.896C161.818 12.704 162.16 12.608 162.522 12.608H173.914C174.32 12.608 174.608 12.768 174.778 13.088C174.949 13.408 175.034 13.7387 175.034 14.08C175.034 14.4853 174.938 14.848 174.746 15.168C174.554 15.4667 174.277 15.616 173.914 15.616H164.41V22.944H169.338C169.701 22.944 169.978 23.0827 170.17 23.36C170.362 23.6373 170.458 23.9573 170.458 24.32C170.458 24.6187 170.373 24.9173 170.202 25.216C170.032 25.4933 169.744 25.632 169.338 25.632H164.41V32.992H173.914C174.277 32.992 174.554 33.1413 174.746 33.44C174.938 33.7387 175.034 34.1013 175.034 34.528C175.034 34.8693 174.949 35.2 174.778 35.52C174.608 35.84 174.32 36 173.914 36H162.522Z" fill="#252525"/>
<circle cx="24" cy="24" r="16.0706" transform="rotate(-45 24 24)" stroke="#252525" stroke-width="1.8"/>
<path d="M30.3636 17.6365C33.5849 20.8578 35.7071 24.506 36.5647 27.7647C37.4287 31.0481 36.9763 33.751 35.3636 35.3637C33.7509 36.9764 31.048 37.4288 27.7646 36.5648C24.5059 35.7072 20.8577 33.585 17.6364 30.3637C14.4151 27.1424 12.2929 23.4942 11.4353 20.2355C10.5713 16.9521 11.0237 14.2492 12.6364 12.6365C14.2491 11.0238 16.952 10.5714 20.2354 11.4355C23.4941 12.293 27.1423 14.4152 30.3636 17.6365Z" stroke="#252525" stroke-width="1.8"/>
<path d="M8.26099 28.261L28.261 8.26096" stroke="#252525" stroke-width="1.8"/>
<path d="M36 36.0001L13.0435 13.0435" stroke="#252525" stroke-width="1.8"/>
<path d="M19.739 39.7392L39.739 19.7392" stroke="#252525" stroke-width="1.8"/>
<path d="M13.5217 35.5218L35.5217 13.5218" stroke="#252525" stroke-width="1.8"/>
<path d="M42.0311 12.1767C42.0311 8.74825 39.1805 5.9688 35.6672 5.9688C32.1539 5.9688 29.3032 8.74825 29.3032 12.1767C29.3032 15.6052 35.6672 24.5934 35.6672 24.5934C35.6672 24.5934 42.0311 15.6052 42.0311 12.1767ZM32.4852 12.1767C32.4852 10.4608 33.911 9.07234 35.6672 9.07234C37.4234 9.07234 38.8492 10.4608 38.8492 12.1767C38.8492 13.8926 37.4234 15.2811 35.6672 15.2811C33.911 15.2811 32.4852 13.8926 32.4852 12.1767Z" fill="#FF7544"/>
</svg>
