<svg width="80" height="82" viewBox="0 0 80 82" fill="none" xmlns="http://www.w3.org/2000/svg">
<path d="M41.305 60.8117C52.4442 60.8117 61.4743 51.834 61.4743 40.7594C61.4743 29.6848 52.4442 20.707 41.305 20.707C30.1658 20.707 21.1356 29.6848 21.1356 40.7594C21.1356 51.834 30.1658 60.8117 41.305 60.8117Z" fill="#FF7544"/>
<path d="M41.305 55.908C32.9033 55.908 26.068 49.1122 26.068 40.7594C26.068 32.4067 32.9033 25.6108 41.305 25.6108C49.7068 25.6108 56.542 32.4067 56.542 40.7594C56.542 49.1122 49.7068 55.908 41.305 55.908Z" fill="white"/>
<path d="M46.3273 35.7662L41.3051 8.96924V40.7593L46.3273 35.7662Z" fill="black"/>
<path d="M36.2827 35.7662L41.3051 8.96924V40.7593L36.2827 35.7662Z" fill="white"/>
<path d="M51.1568 30.9646L46.3273 35.7661L45.9652 33.835L51.1568 30.9646Z" fill="white" stroke="black" stroke-width="0.5" stroke-miterlimit="10"/>
<path d="M51.1568 30.9646L46.3273 35.7661L48.2695 36.1259L51.1568 30.9646Z" fill="black"/>
<path d="M36.2829 35.7661L9.32971 40.7592H41.3051L36.2829 35.7661Z" fill="black"/>
<path d="M36.2829 45.7525L9.32971 40.7593H41.3051L36.2829 45.7525Z" fill="white"/>
<path d="M31.4534 30.9646L36.2829 35.7661L34.3405 36.1259L31.4534 30.9646Z" fill="white" stroke="black" stroke-width="0.5" stroke-miterlimit="10"/>
<path d="M31.4534 30.9646L36.2829 35.7661L36.6448 33.835L31.4534 30.9646Z" fill="black"/>
<path d="M36.283 45.7524L41.3052 72.5492V40.7593L36.283 45.7524Z" fill="black"/>
<path d="M46.3276 45.7524L41.3052 72.5492V40.7593L46.3276 45.7524Z" fill="white"/>
<path d="M31.4534 50.5537L36.2829 45.7522L36.6448 47.6832L31.4534 50.5537Z" fill="white" stroke="black" stroke-width="0.5" stroke-miterlimit="10"/>
<path d="M31.4534 50.5538L36.2829 45.7523L34.3405 45.3923L31.4534 50.5538Z" fill="black"/>
<path d="M46.3274 45.848L73.2806 40.8547H41.3052L46.3274 45.848Z" fill="black"/>
<path d="M46.3274 35.8621L73.2806 40.8551H41.3052L46.3274 35.8621Z" fill="white"/>
<path d="M51.1569 50.6498L46.3274 45.8482L48.2697 45.4883L51.1569 50.6498Z" fill="white" stroke="black" stroke-width="0.5" stroke-miterlimit="10"/>
<path d="M51.157 50.6497L46.3274 45.8481L45.9653 47.7792L51.157 50.6497Z" fill="black"/>
<path d="M37.632 7.89794V0H39.4326L43.1843 5.27429V0H44.9036V7.89794H43.0466L39.3512 2.74763V7.89794H37.632Z" fill="#363636"/>
<path d="M37.4977 79.2902L39.2983 79.1394C39.4067 79.6601 39.6268 80.0427 39.958 80.2869C40.2892 80.5313 40.7364 80.6533 41.2991 80.6533C41.8952 80.6533 42.3442 80.5448 42.6465 80.3273C42.9487 80.11 43.0998 79.8559 43.0998 79.5649C43.0998 79.3783 43.0363 79.2194 42.9093 79.0882C42.7819 78.9572 42.56 78.843 42.2434 78.7462C42.0265 78.6815 41.5327 78.5666 40.7614 78.4014C39.7693 78.1894 39.0733 77.9292 38.673 77.6201C38.1104 77.1857 37.8289 76.6558 37.8289 76.0309C37.8289 75.6288 37.9612 75.2524 38.2258 74.9022C38.4906 74.5521 38.872 74.2854 39.3701 74.1022C39.8683 73.9189 40.4696 73.8274 41.174 73.8274C42.3246 73.8274 43.1904 74.0448 43.772 74.4793C44.3534 74.9139 44.6587 75.4941 44.6878 76.2193L42.8371 76.2894C42.7577 75.8836 42.5879 75.5917 42.3274 75.4139C42.0669 75.2361 41.676 75.1473 41.1552 75.1473C40.6176 75.1473 40.1963 75.2424 39.8922 75.4328C39.6963 75.5549 39.5983 75.7182 39.5983 75.923C39.5983 76.1098 39.69 76.2698 39.8734 76.4025C40.1067 76.5715 40.6737 76.7473 41.574 76.9304C42.4744 77.1135 43.1403 77.3031 43.5717 77.4988C44.0032 77.6946 44.3409 77.962 44.5847 78.3015C44.8286 78.6409 44.9505 79.0603 44.9505 79.5594C44.9505 80.0119 44.8045 80.4358 44.5127 80.8309C44.221 81.2261 43.8083 81.5197 43.2749 81.7117C42.7411 81.9039 42.0765 81.9999 41.2802 81.9999C40.1214 81.9999 39.2316 81.7692 38.6105 81.3076C37.9892 80.8463 37.6184 80.1738 37.4977 79.2902Z" fill="#363636"/>
<path d="M74.4077 45.02V37.1865H76.0117V43.6892H79.9999V45.02H74.4077Z" fill="#363636"/>
<path d="M0 40.9014C0 40.0968 0.120997 39.4217 0.362991 38.8757C0.543639 38.4734 0.790103 38.1125 1.10269 37.7927C1.41513 37.473 1.75746 37.236 2.12955 37.0815C2.62448 36.8732 3.19525 36.769 3.84185 36.769C5.01236 36.769 5.94889 37.1299 6.6516 37.8519C7.35431 38.5738 7.70558 39.5777 7.70558 40.8635C7.70558 42.1385 7.35693 43.1361 6.65977 43.8562C5.96261 44.5763 5.03055 44.9364 3.86358 44.9364C2.68228 44.9364 1.74297 44.5781 1.04582 43.8615C0.348656 43.145 0 42.1584 0 40.9014ZM1.6528 40.8476C1.6528 41.7419 1.86058 42.4198 2.27598 42.8813C2.69137 43.3427 3.21883 43.5736 3.85834 43.5736C4.49785 43.5736 5.02253 43.3447 5.43254 42.8868C5.84254 42.4289 6.04754 41.7419 6.04754 40.8261C6.04754 39.9211 5.84793 39.2457 5.44872 38.8004C5.04951 38.3551 4.51943 38.1324 3.85834 38.1324C3.19725 38.1324 2.6644 38.3579 2.25979 38.8085C1.85519 39.2592 1.6528 39.9389 1.6528 40.8476Z" fill="#363636"/>
</svg>
